<svg xmlns="http://www.w3.org/2000/svg" version="1.1" xmlns:xlink="http://www.w3.org/1999/xlink" xmlns:svgjs="http://svgjs.dev/svgjs" width="1000" height="1000" viewBox="0 0 1000 1000"><rect width="1000" height="1000" fill="#ffffff"></rect><g transform="matrix(0.7,0,0,0.7,149.57575757575756,440.57344793687645)"><svg viewBox="0 0 396 67" data-background-color="#ffffff" preserveAspectRatio="xMidYMid meet" height="169" width="1000" xmlns="http://www.w3.org/2000/svg" xmlns:xlink="http://www.w3.org/1999/xlink"><g id="tight-bounds" transform="matrix(1,0,0,1,0.2400000000000091,0.15662711943602403)"><svg viewBox="0 0 395.52 66.68674576112797" height="66.68674576112797" width="395.52"><g><svg viewBox="0 0 485.85595326425425 81.9178611242511" height="66.68674576112797" width="395.52"><g transform="matrix(1,0,0,1,90.33595326425433,23.12973119411859)"><svg viewBox="0 0 395.5199999999999 35.65839873601392" height="35.65839873601392" width="395.5199999999999"><g><svg viewBox="0 0 395.5199999999999 35.65839873601392" height="35.65839873601392" width="395.5199999999999"><g><svg viewBox="0 0 395.5199999999999 35.65839873601392" height="35.65839873601392" width="395.5199999999999"><g transform="matrix(1,0,0,1,0,0)"><svg width="395.5199999999999" viewBox="1.399999976158142 -33.900001525878906 387.63250732421875 34.95000076293945" height="35.65839873601392" data-palette-color="#001f3f"><path d="M23.6-9.7L27-9.45Q27.1-4.45 26.4 0L26.4 0 1.7 0 1.4-1.6 5.65-3.4 5.65-29.85 2.05-30.2 2.1-32.7 26.55-32.7 26.6-31.3Q26.6-27.75 25.9-23.85L25.9-23.85 22.45-23.85 21.7-28.65 11.75-29.3 11.75-17.95 22.9-18.85 22.9-14.15 11.75-14.6 11.75-3.7 22.1-4.3 23.6-9.7ZM53.95-11L57.55-10.75Q57.65-4.2 56.9 0L56.9 0 31.2 0 30.9-1.6 35.15-3.4 35.15-29.75 31.3-30.25 31.35-32.7 45.2-32.7 45.5-31.1Q44.25-30.4 41.25-29.3L41.25-29.3 41.25-3.75 52.3-4.45 53.95-11ZM83.75-8.85L83.75-8.85Q83.75-4.5 80.42-1.75 77.09 1 72.05 1L72.05 1Q69.19 1 65.92 0.1 62.64-0.8 60.8-2.35L60.8-2.35 60.84-2.5 60.8-4.25Q60.8-8.1 61.45-11.2L61.45-11.2 64.59-11.2 66.19-4.6Q69.34-2.7 73.69-2.7L73.69-2.7 74.8-2.75Q77.59-4.15 77.59-7.4L77.59-7.4Q77.59-10.2 74.19-12.15L74.19-12.15 66.3-16.2Q60.95-19.35 60.95-24.25L60.95-24.25Q60.95-28.45 64.39-31.08 67.84-33.7 73.19-33.7L73.19-33.7Q77.3-33.7 82.25-32.05L82.25-32.05Q82.5-27.85 81.59-23.2L81.59-23.2 78.25-23.2 77.3-28.4Q74.5-30.05 70.69-30.05L70.69-30.05 69.19-30Q66.84-28.55 66.84-25.7L66.84-25.7Q66.84-23.05 70.44-21.15L70.44-21.15 77.94-17.45Q83.75-14.2 83.75-8.85ZM109.44-9.7L112.84-9.45Q112.94-4.45 112.24 0L112.24 0 87.54 0 87.24-1.6 91.49-3.4 91.49-29.85 87.89-30.2 87.94-32.7 112.39-32.7 112.44-31.3Q112.44-27.75 111.74-23.85L111.74-23.85 108.29-23.85 107.54-28.65 97.59-29.3 97.59-17.95 108.74-18.85 108.74-14.15 97.59-14.6 97.59-3.7 107.94-4.3 109.44-9.7ZM161.64-32.7L161.94-31.1 158.14-29.45 149.74 0.1Q146.59 0.65 143.44 0.6L143.44 0.6 138.04-17.85 136.99-12.05 133.24 0.1 133.19 0.05 133.19 0.1Q130.04 0.65 126.99 0.6L126.99 0.6 117.99-29.8 114.39-30.25 114.44-32.7 128.44-32.7 128.74-31.1 124.49-29.3 129.69-10.25 130.19-4 130.39-4 136.24-23.95 134.24-30.8 140.24-32.25 145.94-10.45 146.54-4 146.69-4 153.64-29.6 148.69-30.25 148.74-32.7 161.64-32.7ZM184.54-9.7L187.94-9.45Q188.04-4.45 187.34 0L187.34 0 162.64 0 162.34-1.6 166.59-3.4 166.59-29.85 162.99-30.2 163.04-32.7 187.49-32.7 187.54-31.3Q187.54-27.75 186.84-23.85L186.84-23.85 183.39-23.85 182.64-28.65 172.69-29.3 172.69-17.95 183.84-18.85 183.84-14.15 172.69-14.6 172.69-3.7 183.04-4.3 184.54-9.7ZM208.03-33.1L208.03-33.1Q214.78-33.1 219.21-28.3 223.63-23.5 223.63-16.6L223.63-16.6Q223.63-9.25 219.11-4.67 214.59-0.1 207.03 0L207.03 0 192.13 0 191.84-1.6 196.09-3.4 196.09-29.85 192.53-30.2 192.59-32.7Q200.88-33.1 208.03-33.1ZM206.44-3.75L206.44-3.75Q211.19-3.75 214.09-7.33 216.99-10.9 216.99-16.45L216.99-16.45Q216.99-20.75 215.16-24.4 213.34-28.05 210.44-29.7L210.44-29.7 202.19-28.95 202.19-4.35Q204.24-3.75 206.44-3.75ZM241.63-12.75L241.63-3 245.78-2.45 245.73 0 231.98 0 231.68-1.6Q233.08-2.35 235.63-3.3L235.63-3.3 235.63-12.5 226.33-29.85 223.18-30.25 223.23-32.7 235.58-32.7 235.88-31.1 232.83-29.75 237.88-20.2 239.23-16.05 239.48-16.05 246.33-29.75 242.48-30.25 242.53-32.7 254.13-32.7 254.43-31.1Q252.78-30.2 250.68-29.5L250.68-29.5 241.63-12.75ZM296.58-12.05L296.58-3.55 296.63-3.5 286.43 1 285.03 1.05Q279.43 1.05 275.65-1.35 271.88-3.75 270.05-7.58 268.23-11.4 268.23-15.7L268.23-15.7Q268.23-23.55 273.15-28.63 278.08-33.7 285.98-33.7L285.98-33.7Q292.08-33.7 296.28-30.65L296.28-30.65 296.23-30.5 296.28-29.3Q296.28-26.15 295.33-22.8L295.33-22.8 291.58-22.8 290.73-27.85Q286.73-29.75 282.33-29.75L282.33-29.75 280.43-29.65Q277.53-27.85 276.08-24.28 274.63-20.7 274.63-16.4L274.63-16.4Q274.63-10.7 277.6-7.03 280.58-3.35 285.38-3.3L285.38-3.3Q287.53-3.25 290.78-4L290.78-4 290.78-11.3Q287.48-12.4 285.53-13.4L285.53-13.4 285.83-15.1 300.38-15.1 300.43-12.7 296.58-12.05ZM331.68-2.9L335.28-2.45 335.23 0 320.68 0 320.38-1.6Q322.03-2.5 324.98-3.5L324.98-3.5 322.63-9.55 309.93-9.55 307.43-3.1 312.33-2.45 312.28 0 299.03 0 298.73-1.6Q300.53-2.55 302.88-3.35L302.88-3.35 314.28-31.1 313.78-32.35 319.03-33.9 331.68-2.9ZM311.23-13L321.28-13 316.28-25.95 311.23-13ZM362.07-33L362.07-33 362.12-31.7Q362.12-27.8 361.42-23.5L361.42-23.5 358.02-23.5 357.37-29.15 350.07-29.55 350.07-3.15 355.52-2.45 355.47 0 339.02 0 338.72-1.6 342.37-3 343.97-3.55 343.97-29.55 336.67-29.15 336.02-23.5 332.67-23.5Q331.97-27.6 331.97-31.4L331.97-31.4 332.02-33 347.12-32.8Q355.07-32.8 362.07-33ZM385.62-9.7L389.02-9.45Q389.12-4.45 388.42 0L388.42 0 363.72 0 363.42-1.6 367.67-3.4 367.67-29.85 364.07-30.2 364.12-32.7 388.57-32.7 388.62-31.3Q388.62-27.75 387.92-23.85L387.92-23.85 384.47-23.85 383.72-28.65 373.77-29.3 373.77-17.95 384.92-18.85 384.92-14.15 373.77-14.6 373.77-3.7 384.12-4.3 385.62-9.7Z" opacity="1" transform="matrix(1,0,0,1,0,0)" fill="#001f3f" class="undefined-text-0" data-fill-palette-color="primary" id="text-0"></path></svg></g></svg></g></svg></g></svg></g><g><svg viewBox="0 0 81.9178611242511 81.9178611242511" height="81.9178611242511" width="81.9178611242511"><g><svg></svg></g><g id="icon-0"><svg viewBox="0 0 81.9178611242511 81.9178611242511" height="81.9178611242511" width="81.9178611242511"><g><rect width="74.48457372593944" height="74.48457372593944" x="3.7166436991558314" y="3.7166436991558314" fill="#fb806f" data-fill-palette-color="accent"></rect><rect width="74.48457372593944" height="74.48457372593944" x="7.433287398311668" y="-5.329070518200751e-15" fill="#fb806f" opacity="0.5" data-fill-palette-color="accent"></rect></g><g transform="matrix(1,0,0,1,11.881676545889825,10.618981997588104)"><svg viewBox="0 0 58.154508032471455 60.679897129074895" height="60.679897129074895" width="58.154508032471455"><g><svg xmlns="http://www.w3.org/2000/svg" xmlns:xlink="http://www.w3.org/1999/xlink" version="1.1" x="0" y="0" viewBox="0.4995548725128174 0.0007499605417251587 23.000444412231445 23.999250411987305" style="enable-background:new 0 0 24 24;" xml:space="preserve" width="58.154508032471455" height="60.679897129074895" class="icon-a-0" data-fill-palette-color="background" id="a-0"><g fill="#ffffff" data-fill-palette-color="background"><g fill="#ffffff" data-fill-palette-color="background"><path d="M22.995 19h-0.5v-5h0.5c0.276 0 0.5-0.224 0.5-0.5s-0.224-0.5-0.5-0.5h-0.5V7.957l0.455 0.041C22.965 8 22.98 8 22.995 8c0.256 0 0.474-0.195 0.498-0.455 0.025-0.275-0.178-0.519-0.453-0.543l-0.545-0.049V6h0.5c0.202 0 0.385-0.122 0.462-0.309 0.078-0.187 0.035-0.402-0.108-0.545l-1-1c-0.195-0.195-0.512-0.195-0.707 0l-1 1c-0.143 0.143-0.186 0.358-0.108 0.545C20.611 5.878 20.794 6 20.996 6h0.5v0.863l-4-0.361V4h0.5c0.202 0 0.385-0.122 0.462-0.309 0.078-0.187 0.035-0.402-0.108-0.545l-1-1c-0.195-0.195-0.512-0.195-0.707 0l-1 1c-0.143 0.143-0.186 0.358-0.108 0.545C15.612 3.878 15.795 4 15.997 4h0.5v2.412l-4-0.361V2h0.52c0.276 0 0.5-0.224 0.5-0.5 0-0.181-0.096-0.339-0.24-0.427l-0.926-0.926c-0.195-0.195-0.512-0.195-0.707 0l-1 1c-0.143 0.143-0.186 0.358-0.108 0.545 0.077 0.187 0.26 0.309 0.462 0.309h0.5v4.043l-4 0.364V4h0.52c0.276 0 0.5-0.224 0.5-0.5 0-0.181-0.096-0.339-0.24-0.427L7.352 2.147c-0.195-0.195-0.512-0.195-0.707 0l-1 1C5.502 3.29 5.459 3.505 5.537 3.692c0.077 0.187 0.26 0.309 0.462 0.309h0.5v2.498l-4 0.364V6h0.52c0.276 0 0.5-0.224 0.5-0.5 0-0.181-0.096-0.339-0.24-0.427L2.353 4.147c-0.195-0.195-0.512-0.195-0.707 0l-1 1C0.503 5.29 0.46 5.505 0.538 5.692 0.615 5.879 0.798 6.001 1 6.001h0.5v0.952l-0.545 0.05C0.68 7.028 0.477 7.271 0.502 7.546c0.025 0.275 0.262 0.478 0.543 0.453L1.5 7.957V13H1c-0.276 0-0.5 0.224-0.5 0.5S0.724 14 1 14h0.5v5H1c-0.276 0-0.5 0.224-0.5 0.5S0.724 20 1 20h0.5v3.5C1.5 23.776 1.724 24 2 24s0.5-0.224 0.5-0.5V20h4v3.5C6.5 23.776 6.724 24 7 24s0.5-0.224 0.5-0.5V20h4v3.5c0 0.276 0.224 0.5 0.5 0.5s0.5-0.224 0.5-0.5V20h4v3.5c0 0.276 0.224 0.5 0.5 0.5s0.5-0.224 0.5-0.5V20h4v3.5c0 0.276 0.224 0.5 0.5 0.5s0.5-0.224 0.5-0.5V20H23c0.276 0 0.5-0.224 0.5-0.5S23.271 19 22.995 19zM6.495 19h-4v-5h4V19zM6.495 13h-4V7.865l4-0.367V13zM11.495 19h-4v-5h4V19zM11.495 13h-4V7.406l4-0.366V13zM16.495 19h-4v-5h4V19zM16.495 13h-4V7.048l4 0.363V13zM21.495 19h-4v-5h4V19zM21.495 13h-4V7.502l4 0.364V13z" fill="#ffffff" data-fill-palette-color="background"></path></g></g></svg></g></svg></g></svg></g></svg></g></svg></g><defs></defs></svg><rect width="395.52" height="66.68674576112797" fill="none" stroke="none" visibility="hidden"></rect></g></svg></g></svg>